<?xml version="1.0" encoding="UTF-8" standalone="no"?>
<!-- Created using Krita: https://krita.org -->

<svg
   width="251.36249"
   height="141.0641"
   viewBox="0 0 188.52187 105.79806"
   version="1.1"
   id="svg3"
   sodipodi:docname="FullAcumulappLogo.svg"
   inkscape:version="1.4.2 (f4327f4, 2025-05-13)"
   xmlns:inkscape="http://www.inkscape.org/namespaces/inkscape"
   xmlns:sodipodi="http://sodipodi.sourceforge.net/DTD/sodipodi-0.dtd"
   xmlns="http://www.w3.org/2000/svg"
   xmlns:svg="http://www.w3.org/2000/svg">
  <sodipodi:namedview
     id="namedview3"
     pagecolor="#ffffff"
     bordercolor="#000000"
     borderopacity="0.25"
     inkscape:showpageshadow="2"
     inkscape:pageopacity="0.0"
     inkscape:pagecheckerboard="0"
     inkscape:deskcolor="#d1d1d1"
     inkscape:document-units="pt"
     inkscape:zoom="2.415625"
     inkscape:cx="150.89263"
     inkscape:cy="70.168176"
     inkscape:window-width="1198"
     inkscape:window-height="981"
     inkscape:window-x="-8"
     inkscape:window-y="0"
     inkscape:window-maximized="0"
     inkscape:current-layer="group0" />
  <defs
     id="defs2">
    <linearGradient
       id="gradient0"
       gradientUnits="objectBoundingBox"
       x1="0.73283172"
       y1="0.72358507"
       x2="0.38255167"
       y2="0.2125335"
       spreadMethod="pad">
      <stop
         stop-color="#6400ab"
         offset="0"
         stop-opacity="1"
         id="stop1" />
      <stop
         stop-color="#ab008e"
         offset="1"
         stop-opacity="1"
         id="stop2" />
    </linearGradient>
  </defs>
  <g
     id="group0"
     transform="scale(0.70401294)"
     fill="none"
     style="fill:#673ab7;fill-opacity:1">
    <g
       id="group1"
       transform="translate(86.99663,59.824586)"
       fill="none"
       style="fill:#673ab7;fill-opacity:1">
      <path
         d="m 4.4238281,0.17578125 q -0.8613281,0 -1.5761718,-0.20507813 Q 2.1386719,-0.234375 1.6113281,-0.66210937 1.0898437,-1.0898437 0.80273438,-1.7402344 0.515625,-2.390625 0.515625,-3.2636719 q 0,-0.9199218 0.3046875,-1.5878906 Q 1.1308594,-5.5195312 1.6816406,-5.9589844 2.2148438,-6.375 2.9121094,-6.5683594 3.609375,-6.7617187 4.359375,-6.7617187 q 0.6738281,0 1.2421875,0.1464843 0.5683594,0.1464844 1.0605469,0.3808594 v 1.7988281 H 6.3632812 Q 6.2402344,-4.5410156 6.0644531,-4.6816406 5.8945312,-4.8222656 5.6425781,-4.9570312 5.4023437,-5.0859375 5.1152344,-5.1679687 4.828125,-5.2558594 4.4472656,-5.2558594 q -0.84375,0 -1.3007812,0.5390625 -0.4511719,0.5332032 -0.4511719,1.453125 0,0.9492188 0.4628906,1.4414063 0.46875,0.4921875 1.3242188,0.4921875 0.3984375,0 0.7148437,-0.087891 0.3222656,-0.09375 0.5332031,-0.2167969 0.1992188,-0.1171875 0.3515625,-0.2460938 0.1523438,-0.1289062 0.28125,-0.2519531 h 0.2988282 v 1.79882812 Q 6.1640625,-0.09960977 5.6191406,0.03515585 5.0800781,0.17578085 4.4238281,0.17578125 Z M 14.613281,0 h -2.109375 v -0.7265625 q -0.585937,0.4453125 -1.072265,0.6796875 -0.486328,0.22851562 -1.160157,0.22851562 -1.0898434,0 -1.6816402,-0.62695312 Q 8.0039063,-1.0722656 8.0039063,-2.296875 V -6.5800781 H 10.125 v 3.2636718 q 0,0.4980469 0.0293,0.8320313 0.03516,0.328125 0.152344,0.5449219 0.111328,0.2167969 0.333984,0.3164062 0.228516,0.099609 0.632813,0.099609 0.269531,0 0.597656,-0.099609 0.328125,-0.099609 0.632812,-0.2929687 v -4.6640625 h 2.109375 z m 8.425781,-4.6640625 V 0 h -2.121093 v -3.2871094 q 0,-0.4804687 -0.02344,-0.8144531 -0.02344,-0.3398437 -0.128906,-0.5507812 -0.105469,-0.2109375 -0.322266,-0.3046875 -0.210937,-0.099609 -0.597656,-0.099609 -0.310547,0 -0.603516,0.1289062 -0.292968,0.1230469 -0.527343,0.2636719 V 0 h -2.109375 v -6.5800781 h 2.109375 v 0.7265625 q 0.544922,-0.4277344 1.042968,-0.6679688 0.498047,-0.2402343 1.101563,-0.2402343 0.650391,0 1.148437,0.2929687 0.498047,0.2871094 0.779297,0.8496094 0.632813,-0.5332031 1.230469,-0.8378906 0.597656,-0.3046875 1.171875,-0.3046875 1.066406,0 1.617188,0.6386718 0.55664,0.6386719 0.55664,1.8398438 V 0 h -2.121094 v -3.2871094 q 0,-0.4863281 -0.02344,-0.8203125 -0.01758,-0.3339843 -0.123047,-0.5449218 -0.09961,-0.2109375 -0.316406,-0.3046875 -0.216797,-0.099609 -0.609375,-0.099609 -0.263672,0 -0.515625,0.09375 -0.251953,0.087891 -0.615235,0.2988281 z M 35.859375,0 H 33.75 v -0.7265625 q -0.585938,0.4453125 -1.072266,0.6796875 -0.486328,0.22851562 -1.160156,0.22851562 -1.089844,0 -1.681641,-0.62695312 Q 29.25,-1.0722656 29.25,-2.296875 v -4.2832031 h 2.121094 v 3.2636718 q 0,0.4980469 0.0293,0.8320313 0.03516,0.328125 0.152343,0.5449219 0.111328,0.2167969 0.333985,0.3164062 0.228515,0.099609 0.632812,0.099609 0.269531,0 0.597656,-0.099609 0.328125,-0.099609 0.632813,-0.2929687 v -4.6640625 h 2.109375 z m 4.101562,0 h -2.109375 v -9.1171875 h 2.109375 z"
         id="shape1"
         style="font-weight:700;font-size:12px;font-family:'League Spartan';letter-spacing:0;word-spacing:0;stroke:#000000;stroke-width:0;stroke-linecap:square;stroke-linejoin:bevel;stroke-opacity:0"
         transform="matrix(4.5166583,0.02598773,-0.02511631,4.6733655,0.06630706,39.25627)"
         aria-label="cumul" />
      <path
         d="m 58.651494,67.200218 v -6.299376 q -1.96519,0.161523 -4.253424,0.457647 -2.288235,0.269204 -3.472733,0.64609 -1.453702,0.457647 -2.234394,1.346021 -0.753772,0.861453 -0.753772,2.288234 0,0.942215 0.161523,1.534464 0.161522,0.592249 0.807612,1.130657 0.619169,0.538408 1.480623,0.807612 0.861453,0.242284 2.692041,0.242284 1.453702,0 2.934324,-0.592249 1.507543,-0.592249 2.6382,-1.561384 z m 0,4.684151 q -0.780692,0.592249 -1.938269,1.426782 -1.157578,0.834533 -2.180553,1.3191 -1.426782,0.64609 -2.961245,0.942215 -1.534464,0.323045 -3.365052,0.323045 -4.307265,0 -7.21467,-2.665121 -2.907404,-2.665121 -2.907404,-6.810864 0,-3.31121 1.480623,-5.411002 1.480622,-2.099792 4.199584,-3.311211 2.692041,-1.211418 6.676261,-1.722906 3.984221,-0.511488 8.264566,-0.753771 v -0.161523 q 0,-2.503598 -2.045951,-3.445812 -2.045951,-0.969135 -6.030172,-0.969135 -2.395916,0 -5.114878,0.861453 -2.718961,0.834533 -3.903459,1.29218 h -0.888374 v -7.295431 q 1.534464,-0.403806 4.980276,-0.942215 3.472733,-0.565328 6.945466,-0.565328 8.264566,0 11.925742,2.557439 3.688096,2.530518 3.688096,7.968441 V 75.087898 H 58.651494 Z M 108.72346,59.554822 q 0,3.741937 -1.15758,6.810863 -1.13066,3.068927 -2.98817,5.061038 -1.93826,2.099791 -4.38802,3.176608 -2.449759,1.076816 -5.249482,1.076816 -2.584359,0 -4.388027,-0.565328 -1.803667,-0.538409 -3.688096,-1.534464 V 86.179107 H 77.172737 V 44.856278 h 9.691348 v 3.149688 q 2.234394,-1.776747 4.549549,-2.880484 2.342076,-1.103737 5.384082,-1.103737 5.653284,0 8.776054,4.145743 3.14969,4.145744 3.14969,11.387334 z m -9.987474,0.188443 q 0,-4.414948 -1.507543,-6.407058 -1.507543,-1.99211 -4.764913,-1.99211 -1.372941,0 -2.826643,0.430726 -1.453702,0.403806 -2.772802,1.184498 v 15.210032 q 0.969135,0.376886 2.072871,0.484567 1.103737,0.107682 2.180554,0.107682 3.849618,0 5.734047,-2.234394 1.884429,-2.261315 1.884429,-6.783943 z m 48.537504,-0.188443 q 0,3.741937 -1.15758,6.810863 -1.13066,3.068927 -2.98817,5.061038 -1.93827,2.099791 -4.38802,3.176608 -2.44976,1.076816 -5.24948,1.076816 -2.58436,0 -4.38803,-0.565328 -1.80367,-0.538409 -3.6881,-1.534464 v 12.598752 h -9.69134 V 44.856278 h 9.69134 v 3.149688 q 2.2344,-1.776747 4.54955,-2.880484 2.34208,-1.103737 5.38409,-1.103737 5.65328,0 8.77605,4.145743 3.14969,4.145744 3.14969,11.387334 z m -9.98747,0.188443 q 0,-4.414948 -1.50755,-6.407058 -1.50754,-1.99211 -4.76491,-1.99211 -1.37294,0 -2.82664,0.430726 -1.45371,0.403806 -2.77281,1.184498 v 15.210032 q 0.96914,0.376886 2.07288,0.484567 1.10373,0.107682 2.18055,0.107682 3.84962,0 5.73405,-2.234394 1.88443,-2.261315 1.88443,-6.783943 z"
         id="shape01"
         style="font-weight:700;font-size:55.133px;font-family:'League Spartan';letter-spacing:0;word-spacing:0;stroke:#000000;stroke-width:0;stroke-linecap:square;stroke-linejoin:bevel;stroke-opacity:0"
         transform="scale(0.98309104,1.0171998)"
         aria-label="app" />
    </g>
    <path
       id="shape0"
       transform="scale(1.0669558)"
       fill="url(#gradient0)"
       fill-rule="evenodd"
       stroke-opacity="0"
       stroke="#000000"
       stroke-width="0"
       stroke-linecap="square"
       stroke-linejoin="bevel"
       d="m 57.9321,107.824 -41.6112,-0.021 9.3495,-18.2182 23.5544,-0.043 8.7073,18.2822 M 0,79.1218 38.5189,0 102.747,140.848 H 79.4061 L 38.0283,50.7018 23.6154,79.1218 H 0"
       sodipodi:nodetypes="cccccccccccc"
       style="fill:#673ab7;fill-opacity:1" />
  </g>
</svg>
