<?xml version="1.0" standalone="no"?>
<!DOCTYPE svg PUBLIC "-//W3C//DTD SVG 20010904//EN"
 "http://www.w3.org/TR/2001/REC-SVG-20010904/DTD/svg10.dtd">
<svg version="1.0" xmlns="http://www.w3.org/2000/svg"
 width="494.000000pt" height="273.000000pt" viewBox="0 0 494.000000 273.000000"
 preserveAspectRatio="xMidYMid meet">

<g transform="translate(0.000000,273.000000) scale(0.100000,-0.100000)"
fill="#000000" stroke="none">
<path d="M938 2033 c-19 -32 -115 -191 -212 -354 l-177 -297 68 -136 c37 -75
71 -136 75 -136 5 0 69 92 145 205 75 113 139 205 142 205 3 0 15 -21 25 -48
11 -26 27 -65 37 -87 10 -22 66 -152 124 -290 59 -137 113 -263 120 -280 8
-16 39 -88 69 -160 l55 -130 141 -3 c77 -1 140 0 140 4 0 6 -124 286 -190 427
-41 89 -169 372 -282 622 -49 110 -109 241 -132 290 -23 50 -55 120 -71 157
-17 37 -33 68 -36 68 -3 0 -22 -26 -41 -57z"/>
<path d="M3989 1595 c-1 -168 -2 -317 -3 -332 -1 -27 0 -28 60 -31 l62 -3 7
253 c3 139 5 289 3 333 l-3 80 -62 3 -63 3 -1 -306z"/>
<path d="M1606 1718 c-24 -7 -56 -28 -81 -53 -53 -52 -70 -115 -62 -221 7 -92
35 -146 95 -181 58 -35 163 -43 227 -19 l45 18 0 54 c0 30 -2 54 -4 54 -2 0
-20 -7 -39 -15 -20 -8 -59 -15 -87 -15 -42 0 -55 5 -75 26 -43 47 -46 167 -5
225 31 42 87 46 175 13 14 -6 51 78 41 94 -17 28 -155 39 -230 20z"/>
<path d="M1944 1706 c-3 -8 -4 -95 -2 -193 3 -164 5 -181 25 -214 49 -78 184
-94 262 -31 l39 32 11 -30 c5 -17 14 -30 18 -31 4 0 17 -2 28 -5 11 -2 30 -2
43 1 l22 5 0 240 0 240 -65 0 -65 0 0 -142 c0 -120 -4 -150 -20 -186 -22 -48
-57 -67 -108 -57 -52 10 -62 45 -62 230 l0 155 -60 0 c-43 0 -62 -4 -66 -14z"/>
<path d="M2534 1707 c-2 -7 -3 -116 -2 -242 l3 -230 60 0 60 0 5 160 c3 101
10 168 18 182 28 50 98 59 131 17 19 -25 21 -40 21 -195 l0 -169 65 0 65 0 0
145 c0 152 11 203 48 231 27 21 76 17 98 -7 17 -18 20 -42 24 -193 l5 -171 63
-3 62 -3 0 191 c0 173 -2 195 -21 231 -24 49 -66 69 -141 69 -54 0 -107 -20
-121 -46 -11 -19 -43 -18 -51 1 -14 38 -139 59 -203 34 -15 -6 -38 -20 -50
-31 -13 -12 -24 -20 -26 -17 -2 2 -8 16 -15 32 -10 23 -17 27 -52 27 -24 0
-43 -5 -46 -13z"/>
<path d="M3400 1525 c0 -168 2 -190 21 -226 44 -88 195 -106 273 -34 l28 25
11 -30 c10 -28 15 -30 59 -30 l48 0 0 240 0 241 -62 -3 -63 -3 -5 -163 -5
-164 -33 -29 c-48 -43 -101 -39 -127 12 -11 21 -15 67 -15 189 l0 160 -65 0
-65 0 0 -185z"/>
<path d="M2012 990 c-19 -4 -46 -20 -61 -34 -15 -14 -30 -26 -33 -26 -3 0 -11
14 -17 30 -9 28 -13 30 -60 30 l-51 0 0 -350 0 -351 63 3 62 3 0 128 c0 70 1
127 2 127 1 0 19 -11 39 -25 47 -32 133 -35 181 -5 72 43 110 152 97 275 -16
142 -107 222 -222 195z m43 -106 c34 -14 51 -77 47 -181 -5 -105 -121 -143
-167 -53 -32 61 -13 217 27 233 19 8 74 8 93 1z"/>
<path d="M2572 990 c-19 -4 -47 -20 -63 -36 -16 -15 -30 -26 -32 -23 -2 2 -8
16 -15 32 -10 24 -17 27 -62 27 l-50 0 0 -350 0 -351 63 3 62 3 0 128 c0 70 3
127 6 127 4 0 19 -10 35 -22 24 -19 41 -23 102 -23 l74 0 43 48 c47 51 65 107
65 195 -1 172 -98 274 -228 242z m62 -123 c46 -46 46 -182 -1 -237 -49 -59
-133 -28 -149 54 -12 68 0 153 26 181 32 34 91 35 124 2z"/>
</g>
</svg>
